<?xml version="1.0" encoding="UTF-8" standalone="no"?>
<!DOCTYPE svg PUBLIC "-//W3C//DTD SVG 1.1//EN"
 "http://www.w3.org/Graphics/SVG/1.1/DTD/svg11.dtd">
<!-- Generated by graphviz version 2.26.3 (20100126.1600)
 -->
<!-- Title: Adafruit_BMP180.h Pages: 1 -->
<svg width="272pt" height="88pt"
 viewBox="0.00 0.00 272.00 88.00" xmlns="http://www.w3.org/2000/svg" xmlns:xlink="http://www.w3.org/1999/xlink">
<g id="graph1" class="graph" transform="scale(1 1) rotate(0) translate(4 84)">
<title>Adafruit_BMP180.h</title>
<polygon fill="white" stroke="white" points="-4,5 -4,-84 269,-84 269,5 -4,5"/>
<!-- Node1 -->
<g id="node1" class="node"><title>Node1</title>
<polygon fill="#bfbfbf" stroke="black" points="75.5,-58.5 75.5,-79.5 176.5,-79.5 176.5,-58.5 75.5,-58.5"/>
<text text-anchor="middle" x="126" y="-66.5" font-family="Helvetica,sans-Serif" font-size="10.00">Adafruit_BMP180.h</text>
</g>
<!-- Node2 -->
<g id="node3" class="node"><title>Node2</title>
<a xlink:href="_adafruit___b_m_p180_8cpp.html" target="_top" xlink:title="Defininitions of methods declared in file Adafruit_BMP180.h.">
<polygon fill="white" stroke="black" points="0,-0.5 0,-21.5 112,-21.5 112,-0.5 0,-0.5"/>
<text text-anchor="middle" x="56" y="-8.5" font-family="Helvetica,sans-Serif" font-size="10.00">Adafruit_BMP180.cpp</text>
</a>
</g>
<!-- Node1&#45;&gt;Node2 -->
<g id="edge2" class="edge"><title>Node1&#45;&gt;Node2</title>
<path fill="none" stroke="midnightblue" d="M105.453,-51.9753C93.5725,-42.1315 78.9969,-30.0545 68.7577,-21.5707"/>
<polygon fill="midnightblue" stroke="midnightblue" points="103.228,-54.6768 113.161,-58.3619 107.694,-49.2866 103.228,-54.6768"/>
</g>
<!-- Node3 -->
<g id="node5" class="node"><title>Node3</title>
<a xlink:href="test___adafruit___b_m_p180_8cpp.html" target="_top" xlink:title="Test for Adafruit_BMP180 sensor interface class.">
<polygon fill="white" stroke="black" points="130,-0.5 130,-21.5 264,-21.5 264,-0.5 130,-0.5"/>
<text text-anchor="middle" x="197" y="-8.5" font-family="Helvetica,sans-Serif" font-size="10.00">test_Adafruit_BMP180.cpp</text>
</a>
</g>
<!-- Node1&#45;&gt;Node3 -->
<g id="edge4" class="edge"><title>Node1&#45;&gt;Node3</title>
<path fill="none" stroke="midnightblue" d="M146.841,-51.9753C158.891,-42.1315 173.675,-30.0545 184.06,-21.5707"/>
<polygon fill="midnightblue" stroke="midnightblue" points="144.553,-49.3249 139.022,-58.3619 148.981,-54.746 144.553,-49.3249"/>
</g>
</g>
</svg>
