<?xml version="1.0" encoding="UTF-8" standalone="no"?>
<!DOCTYPE svg PUBLIC "-//W3C//DTD SVG 1.1//EN"
 "http://www.w3.org/Graphics/SVG/1.1/DTD/svg11.dtd">
<!-- Generated by graphviz version 2.26.3 (20100126.1600)
 -->
<!-- Title: Adafruit_PWMServoDriver.cpp Pages: 1 -->
<svg width="210pt" height="146pt"
 viewBox="0.00 0.00 210.00 146.00" xmlns="http://www.w3.org/2000/svg" xmlns:xlink="http://www.w3.org/1999/xlink">
<g id="graph1" class="graph" transform="scale(1 1) rotate(0) translate(4 142)">
<title>Adafruit_PWMServoDriver.cpp</title>
<polygon fill="white" stroke="white" points="-4,5 -4,-142 207,-142 207,5 -4,5"/>
<!-- Node1 -->
<g id="node1" class="node"><title>Node1</title>
<polygon fill="#bfbfbf" stroke="black" points="49.5,-116.5 49.5,-137.5 200.5,-137.5 200.5,-116.5 49.5,-116.5"/>
<text text-anchor="middle" x="125" y="-124.5" font-family="Helvetica,sans-Serif" font-size="10.00">Adafruit_PWMServoDriver.cpp</text>
</g>
<!-- Node2 -->
<g id="node3" class="node"><title>Node2</title>
<a xlink:href="_adafruit___p_w_m_servo_driver_8h.html" target="_top" xlink:title="Adafruit_PWMServoDriver.h">
<polygon fill="white" stroke="black" points="0,-58.5 0,-79.5 140,-79.5 140,-58.5 0,-58.5"/>
<text text-anchor="middle" x="70" y="-66.5" font-family="Helvetica,sans-Serif" font-size="10.00">Adafruit_PWMServoDriver.h</text>
</a>
</g>
<!-- Node1&#45;&gt;Node2 -->
<g id="edge2" class="edge"><title>Node1&#45;&gt;Node2</title>
<path fill="none" stroke="midnightblue" d="M114.912,-116.362C107.159,-108.186 96.2696,-96.7025 87.1549,-87.0907"/>
<polygon fill="midnightblue" stroke="midnightblue" points="89.4445,-84.4186 80.0239,-79.5707 84.3651,-89.2352 89.4445,-84.4186"/>
</g>
<!-- Node4 -->
<g id="node7" class="node"><title>Node4</title>
<polygon fill="white" stroke="#bfbfbf" points="157.5,-58.5 157.5,-79.5 202.5,-79.5 202.5,-58.5 157.5,-58.5"/>
<text text-anchor="middle" x="180" y="-66.5" font-family="Helvetica,sans-Serif" font-size="10.00">Wire.h</text>
</g>
<!-- Node1&#45;&gt;Node4 -->
<g id="edge6" class="edge"><title>Node1&#45;&gt;Node4</title>
<path fill="none" stroke="midnightblue" d="M135.088,-116.362C142.841,-108.186 153.73,-96.7025 162.845,-87.0907"/>
<polygon fill="midnightblue" stroke="midnightblue" points="165.635,-89.2352 169.976,-79.5707 160.555,-84.4186 165.635,-89.2352"/>
</g>
<!-- Node3 -->
<g id="node5" class="node"><title>Node3</title>
<polygon fill="white" stroke="#bfbfbf" points="34.5,-0.5 34.5,-21.5 105.5,-21.5 105.5,-0.5 34.5,-0.5"/>
<text text-anchor="middle" x="70" y="-8.5" font-family="Helvetica,sans-Serif" font-size="10.00">WProgram.h</text>
</g>
<!-- Node2&#45;&gt;Node3 -->
<g id="edge4" class="edge"><title>Node2&#45;&gt;Node3</title>
<path fill="none" stroke="midnightblue" d="M70,-58.3619C70,-50.9219 70,-40.7427 70,-31.7276"/>
<polygon fill="midnightblue" stroke="midnightblue" points="73.5001,-31.5706 70,-21.5707 66.5001,-31.5707 73.5001,-31.5706"/>
</g>
</g>
</svg>
