<?xml version="1.0" encoding="UTF-8" standalone="no"?>
<!DOCTYPE svg PUBLIC "-//W3C//DTD SVG 1.1//EN"
 "http://www.w3.org/Graphics/SVG/1.1/DTD/svg11.dtd">
<!-- Generated by graphviz version 2.26.3 (20100126.1600)
 -->
<!-- Title: Adafruit_PWMServoDriver.h Pages: 1 -->
<svg width="348pt" height="88pt"
 viewBox="0.00 0.00 348.00 88.00" xmlns="http://www.w3.org/2000/svg" xmlns:xlink="http://www.w3.org/1999/xlink">
<g id="graph1" class="graph" transform="scale(1 1) rotate(0) translate(4 84)">
<title>Adafruit_PWMServoDriver.h</title>
<polygon fill="white" stroke="white" points="-4,5 -4,-84 345,-84 345,5 -4,5"/>
<!-- Node1 -->
<g id="node1" class="node"><title>Node1</title>
<polygon fill="#bfbfbf" stroke="black" points="94,-58.5 94,-79.5 234,-79.5 234,-58.5 94,-58.5"/>
<text text-anchor="middle" x="164" y="-66.5" font-family="Helvetica,sans-Serif" font-size="10.00">Adafruit_PWMServoDriver.h</text>
</g>
<!-- Node2 -->
<g id="node3" class="node"><title>Node2</title>
<a xlink:href="_adafruit___p_w_m_servo_driver_8cpp.html" target="_top" xlink:title="Adafruit_PWMServoDriver.cpp">
<polygon fill="white" stroke="black" points="-0.5,-0.5 -0.5,-21.5 150.5,-21.5 150.5,-0.5 -0.5,-0.5"/>
<text text-anchor="middle" x="75" y="-8.5" font-family="Helvetica,sans-Serif" font-size="10.00">Adafruit_PWMServoDriver.cpp</text>
</a>
</g>
<!-- Node1&#45;&gt;Node2 -->
<g id="edge2" class="edge"><title>Node1&#45;&gt;Node2</title>
<path fill="none" stroke="midnightblue" d="M139.174,-52.8215C123.844,-42.8312 104.614,-30.2993 91.2205,-21.5707"/>
<polygon fill="midnightblue" stroke="midnightblue" points="137.387,-55.8344 147.676,-58.3619 141.209,-49.9698 137.387,-55.8344"/>
</g>
<!-- Node3 -->
<g id="node5" class="node"><title>Node3</title>
<a xlink:href="test___adafruit___p_w_m_servo_driver_8cpp.html" target="_top" xlink:title="test_Adafruit_PWMServoDriver.cpp">
<polygon fill="white" stroke="black" points="167.5,-0.5 167.5,-21.5 340.5,-21.5 340.5,-0.5 167.5,-0.5"/>
<text text-anchor="middle" x="254" y="-8.5" font-family="Helvetica,sans-Serif" font-size="10.00">test_Adafruit_PWMServoDriver.cpp</text>
</a>
</g>
<!-- Node1&#45;&gt;Node3 -->
<g id="edge4" class="edge"><title>Node1&#45;&gt;Node3</title>
<path fill="none" stroke="midnightblue" d="M189.105,-52.8215C204.607,-42.8312 224.053,-30.2993 237.597,-21.5707"/>
<polygon fill="midnightblue" stroke="midnightblue" points="187.017,-50.0028 180.507,-58.3619 190.809,-55.8869 187.017,-50.0028"/>
</g>
</g>
</svg>
