<?xml version="1.0" encoding="UTF-8" standalone="no"?>
<!DOCTYPE svg PUBLIC "-//W3C//DTD SVG 1.1//EN"
 "http://www.w3.org/Graphics/SVG/1.1/DTD/svg11.dtd">
<!-- Generated by graphviz version 2.26.3 (20100126.1600)
 -->
<!-- Title: Adafruit_BMP180.cpp Pages: 1 -->
<svg width="170pt" height="146pt"
 viewBox="0.00 0.00 170.00 146.00" xmlns="http://www.w3.org/2000/svg" xmlns:xlink="http://www.w3.org/1999/xlink">
<g id="graph1" class="graph" transform="scale(1 1) rotate(0) translate(4 142)">
<title>Adafruit_BMP180.cpp</title>
<polygon fill="white" stroke="white" points="-4,5 -4,-142 167,-142 167,5 -4,5"/>
<!-- Node1 -->
<g id="node1" class="node"><title>Node1</title>
<polygon fill="#bfbfbf" stroke="black" points="39,-116.5 39,-137.5 151,-137.5 151,-116.5 39,-116.5"/>
<text text-anchor="middle" x="95" y="-124.5" font-family="Helvetica,sans-Serif" font-size="10.00">Adafruit_BMP180.cpp</text>
</g>
<!-- Node2 -->
<g id="node3" class="node"><title>Node2</title>
<a xlink:href="_adafruit___b_m_p180_8h.html" target="_top" xlink:title="Adafruit_BMP180.h">
<polygon fill="white" stroke="black" points="-0.5,-58.5 -0.5,-79.5 100.5,-79.5 100.5,-58.5 -0.5,-58.5"/>
<text text-anchor="middle" x="50" y="-66.5" font-family="Helvetica,sans-Serif" font-size="10.00">Adafruit_BMP180.h</text>
</a>
</g>
<!-- Node1&#45;&gt;Node2 -->
<g id="edge2" class="edge"><title>Node1&#45;&gt;Node2</title>
<path fill="none" stroke="midnightblue" d="M86.7463,-116.362C80.5299,-108.35 71.8487,-97.1605 64.485,-87.6696"/>
<polygon fill="midnightblue" stroke="midnightblue" points="67.0967,-85.326 58.2014,-79.5707 61.5661,-89.617 67.0967,-85.326"/>
</g>
<!-- Node4 -->
<g id="node7" class="node"><title>Node4</title>
<polygon fill="white" stroke="#bfbfbf" points="117.5,-58.5 117.5,-79.5 162.5,-79.5 162.5,-58.5 117.5,-58.5"/>
<text text-anchor="middle" x="140" y="-66.5" font-family="Helvetica,sans-Serif" font-size="10.00">Wire.h</text>
</g>
<!-- Node1&#45;&gt;Node4 -->
<g id="edge6" class="edge"><title>Node1&#45;&gt;Node4</title>
<path fill="none" stroke="midnightblue" d="M103.254,-116.362C109.47,-108.35 118.151,-97.1605 125.515,-87.6696"/>
<polygon fill="midnightblue" stroke="midnightblue" points="128.434,-89.617 131.799,-79.5707 122.903,-85.326 128.434,-89.617"/>
</g>
<!-- Node3 -->
<g id="node5" class="node"><title>Node3</title>
<polygon fill="white" stroke="#bfbfbf" points="21,-0.5 21,-21.5 79,-21.5 79,-0.5 21,-0.5"/>
<text text-anchor="middle" x="50" y="-8.5" font-family="Helvetica,sans-Serif" font-size="10.00">Arduino.h</text>
</g>
<!-- Node2&#45;&gt;Node3 -->
<g id="edge4" class="edge"><title>Node2&#45;&gt;Node3</title>
<path fill="none" stroke="midnightblue" d="M50,-58.3619C50,-50.9219 50,-40.7427 50,-31.7276"/>
<polygon fill="midnightblue" stroke="midnightblue" points="53.5001,-31.5706 50,-21.5707 46.5001,-31.5707 53.5001,-31.5706"/>
</g>
</g>
</svg>
