<?xml version="1.0" encoding="UTF-8" standalone="no"?>
<!DOCTYPE svg PUBLIC "-//W3C//DTD SVG 1.1//EN"
 "http://www.w3.org/Graphics/SVG/1.1/DTD/svg11.dtd">
<!-- Generated by graphviz version 2.26.3 (20100126.1600)
 -->
<!-- Title: DFRobotPowerShield.h Pages: 1 -->
<svg width="308pt" height="88pt"
 viewBox="0.00 0.00 308.00 88.00" xmlns="http://www.w3.org/2000/svg" xmlns:xlink="http://www.w3.org/1999/xlink">
<g id="graph1" class="graph" transform="scale(1 1) rotate(0) translate(4 84)">
<title>DFRobotPowerShield.h</title>
<polygon fill="white" stroke="white" points="-4,5 -4,-84 305,-84 305,5 -4,5"/>
<!-- Node1 -->
<g id="node1" class="node"><title>Node1</title>
<polygon fill="#bfbfbf" stroke="black" points="84.5,-58.5 84.5,-79.5 203.5,-79.5 203.5,-58.5 84.5,-58.5"/>
<text text-anchor="middle" x="144" y="-66.5" font-family="Helvetica,sans-Serif" font-size="10.00">DFRobotPowerShield.h</text>
</g>
<!-- Node2 -->
<g id="node3" class="node"><title>Node2</title>
<a xlink:href="_d_f_robot_power_shield_8cpp.html" target="_top" xlink:title="Defininitions of methods declared in file DFRobotPowerShield.h.">
<polygon fill="white" stroke="black" points="0,-0.5 0,-21.5 130,-21.5 130,-0.5 0,-0.5"/>
<text text-anchor="middle" x="65" y="-8.5" font-family="Helvetica,sans-Serif" font-size="10.00">DFRobotPowerShield.cpp</text>
</a>
</g>
<!-- Node1&#45;&gt;Node2 -->
<g id="edge2" class="edge"><title>Node1&#45;&gt;Node2</title>
<path fill="none" stroke="midnightblue" d="M121.197,-52.2587C107.72,-42.3641 91.0647,-30.1361 79.398,-21.5707"/>
<polygon fill="midnightblue" stroke="midnightblue" points="119.378,-55.2651 129.51,-58.3619 123.521,-49.6225 119.378,-55.2651"/>
</g>
<!-- Node3 -->
<g id="node5" class="node"><title>Node3</title>
<a xlink:href="test___d_f_robot_power_shield_8cpp.html" target="_top" xlink:title="test_DFRobotPowerShield.cpp">
<polygon fill="white" stroke="black" points="148,-0.5 148,-21.5 300,-21.5 300,-0.5 148,-0.5"/>
<text text-anchor="middle" x="224" y="-8.5" font-family="Helvetica,sans-Serif" font-size="10.00">test_DFRobotPowerShield.cpp</text>
</a>
</g>
<!-- Node1&#45;&gt;Node3 -->
<g id="edge4" class="edge"><title>Node1&#45;&gt;Node3</title>
<path fill="none" stroke="midnightblue" d="M167.092,-52.2587C180.739,-42.3641 197.605,-30.1361 209.42,-21.5707"/>
<polygon fill="midnightblue" stroke="midnightblue" points="164.715,-49.6585 158.673,-58.3619 168.824,-55.3258 164.715,-49.6585"/>
</g>
</g>
</svg>
