<?xml version="1.0" encoding="UTF-8" standalone="no"?>
<!DOCTYPE svg PUBLIC "-//W3C//DTD SVG 1.1//EN"
 "http://www.w3.org/Graphics/SVG/1.1/DTD/svg11.dtd">
<!-- Generated by graphviz version 2.26.3 (20100126.1600)
 -->
<!-- Title: DFRobotPowerShield.cpp Pages: 1 -->
<svg width="202pt" height="88pt"
 viewBox="0.00 0.00 202.00 88.00" xmlns="http://www.w3.org/2000/svg" xmlns:xlink="http://www.w3.org/1999/xlink">
<g id="graph1" class="graph" transform="scale(1 1) rotate(0) translate(4 84)">
<title>DFRobotPowerShield.cpp</title>
<polygon fill="white" stroke="white" points="-4,5 -4,-84 199,-84 199,5 -4,5"/>
<!-- Node1 -->
<g id="node1" class="node"><title>Node1</title>
<polygon fill="#bfbfbf" stroke="black" points="47,-58.5 47,-79.5 177,-79.5 177,-58.5 47,-58.5"/>
<text text-anchor="middle" x="112" y="-66.5" font-family="Helvetica,sans-Serif" font-size="10.00">DFRobotPowerShield.cpp</text>
</g>
<!-- Node2 -->
<g id="node3" class="node"><title>Node2</title>
<a xlink:href="_d_f_robot_power_shield_8h.html" target="_top" xlink:title="DFRobotPowerShield.h">
<polygon fill="white" stroke="black" points="-0.5,-0.5 -0.5,-21.5 118.5,-21.5 118.5,-0.5 -0.5,-0.5"/>
<text text-anchor="middle" x="59" y="-8.5" font-family="Helvetica,sans-Serif" font-size="10.00">DFRobotPowerShield.h</text>
</a>
</g>
<!-- Node1&#45;&gt;Node2 -->
<g id="edge2" class="edge"><title>Node1&#45;&gt;Node2</title>
<path fill="none" stroke="midnightblue" d="M102.279,-58.3619C94.808,-50.1861 84.3143,-38.7025 75.5311,-29.0907"/>
<polygon fill="midnightblue" stroke="midnightblue" points="77.9889,-26.5918 68.6594,-21.5707 72.8214,-31.3138 77.9889,-26.5918"/>
</g>
<!-- Node3 -->
<g id="node5" class="node"><title>Node3</title>
<polygon fill="white" stroke="#bfbfbf" points="136,-0.5 136,-21.5 194,-21.5 194,-0.5 136,-0.5"/>
<text text-anchor="middle" x="165" y="-8.5" font-family="Helvetica,sans-Serif" font-size="10.00">Arduino.h</text>
</g>
<!-- Node1&#45;&gt;Node3 -->
<g id="edge4" class="edge"><title>Node1&#45;&gt;Node3</title>
<path fill="none" stroke="midnightblue" d="M121.721,-58.3619C129.192,-50.1861 139.686,-38.7025 148.469,-29.0907"/>
<polygon fill="midnightblue" stroke="midnightblue" points="151.179,-31.3138 155.341,-21.5707 146.011,-26.5918 151.179,-31.3138"/>
</g>
</g>
</svg>
