<?xml version="1.0" encoding="UTF-8" standalone="no"?>
<!DOCTYPE svg PUBLIC "-//W3C//DTD SVG 1.1//EN"
 "http://www.w3.org/Graphics/SVG/1.1/DTD/svg11.dtd">
<!-- Generated by graphviz version 2.26.3 (20100126.1600)
 -->
<!-- Title: MAX1704X.cpp Pages: 1 -->
<svg width="144pt" height="146pt"
 viewBox="0.00 0.00 144.00 146.00" xmlns="http://www.w3.org/2000/svg" xmlns:xlink="http://www.w3.org/1999/xlink">
<g id="graph1" class="graph" transform="scale(1 1) rotate(0) translate(4 142)">
<title>MAX1704X.cpp</title>
<polygon fill="white" stroke="white" points="-4,5 -4,-142 141,-142 141,5 -4,5"/>
<!-- Node1 -->
<g id="node1" class="node"><title>Node1</title>
<polygon fill="#bfbfbf" stroke="black" points="32.5,-116.5 32.5,-137.5 117.5,-137.5 117.5,-116.5 32.5,-116.5"/>
<text text-anchor="middle" x="75" y="-124.5" font-family="Helvetica,sans-Serif" font-size="10.00">MAX1704X.cpp</text>
</g>
<!-- Node2 -->
<g id="node3" class="node"><title>Node2</title>
<a xlink:href="_m_a_x1704_x_8h.html" target="_top" xlink:title="Header file for MAX1704X class.">
<polygon fill="white" stroke="black" points="0,-58.5 0,-79.5 74,-79.5 74,-58.5 0,-58.5"/>
<text text-anchor="middle" x="37" y="-66.5" font-family="Helvetica,sans-Serif" font-size="10.00">MAX1704X.h</text>
</a>
</g>
<!-- Node1&#45;&gt;Node2 -->
<g id="edge2" class="edge"><title>Node1&#45;&gt;Node2</title>
<path fill="none" stroke="midnightblue" d="M68.0302,-116.362C62.8343,-108.431 55.5994,-97.3885 49.4225,-87.9606"/>
<polygon fill="midnightblue" stroke="midnightblue" points="52.3335,-86.0172 43.9256,-79.5707 46.4783,-89.8534 52.3335,-86.0172"/>
</g>
<!-- Node4 -->
<g id="node7" class="node"><title>Node4</title>
<polygon fill="white" stroke="#bfbfbf" points="91.5,-58.5 91.5,-79.5 136.5,-79.5 136.5,-58.5 91.5,-58.5"/>
<text text-anchor="middle" x="114" y="-66.5" font-family="Helvetica,sans-Serif" font-size="10.00">Wire.h</text>
</g>
<!-- Node1&#45;&gt;Node4 -->
<g id="edge6" class="edge"><title>Node1&#45;&gt;Node4</title>
<path fill="none" stroke="midnightblue" d="M82.1532,-116.362C87.4858,-108.431 94.9112,-97.3885 101.251,-87.9606"/>
<polygon fill="midnightblue" stroke="midnightblue" points="104.217,-89.8221 106.892,-79.5707 98.4077,-85.9161 104.217,-89.8221"/>
</g>
<!-- Node3 -->
<g id="node5" class="node"><title>Node3</title>
<polygon fill="white" stroke="#bfbfbf" points="8,-0.5 8,-21.5 66,-21.5 66,-0.5 8,-0.5"/>
<text text-anchor="middle" x="37" y="-8.5" font-family="Helvetica,sans-Serif" font-size="10.00">Arduino.h</text>
</g>
<!-- Node2&#45;&gt;Node3 -->
<g id="edge4" class="edge"><title>Node2&#45;&gt;Node3</title>
<path fill="none" stroke="midnightblue" d="M37,-58.3619C37,-50.9219 37,-40.7427 37,-31.7276"/>
<polygon fill="midnightblue" stroke="midnightblue" points="40.5001,-31.5706 37,-21.5707 33.5001,-31.5707 40.5001,-31.5706"/>
</g>
</g>
</svg>
