<?xml version="1.0" encoding="UTF-8" standalone="no"?>
<!DOCTYPE svg PUBLIC "-//W3C//DTD SVG 1.1//EN"
 "http://www.w3.org/Graphics/SVG/1.1/DTD/svg11.dtd">
<!-- Generated by graphviz version 2.26.3 (20100126.1600)
 -->
<!-- Title: MAX1704X.h Pages: 1 -->
<svg width="256pt" height="88pt"
 viewBox="0.00 0.00 256.00 88.00" xmlns="http://www.w3.org/2000/svg" xmlns:xlink="http://www.w3.org/1999/xlink">
<g id="graph1" class="graph" transform="scale(1 1) rotate(0) translate(4 84)">
<title>MAX1704X.h</title>
<polygon fill="white" stroke="white" points="-4,5 -4,-84 253,-84 253,5 -4,5"/>
<!-- Node1 -->
<g id="node1" class="node"><title>Node1</title>
<polygon fill="#bfbfbf" stroke="black" points="71,-58.5 71,-79.5 145,-79.5 145,-58.5 71,-58.5"/>
<text text-anchor="middle" x="108" y="-66.5" font-family="Helvetica,sans-Serif" font-size="10.00">MAX1704X.h</text>
</g>
<!-- Node2 -->
<g id="node3" class="node"><title>Node2</title>
<a xlink:href="_m_a_x1704_x_8cpp.html" target="_top" xlink:title="Implementation file for MAX1704X class.">
<polygon fill="white" stroke="black" points="-0.5,-0.5 -0.5,-21.5 84.5,-21.5 84.5,-0.5 -0.5,-0.5"/>
<text text-anchor="middle" x="42" y="-8.5" font-family="Helvetica,sans-Serif" font-size="10.00">MAX1704X.cpp</text>
</a>
</g>
<!-- Node1&#45;&gt;Node2 -->
<g id="edge2" class="edge"><title>Node1&#45;&gt;Node2</title>
<path fill="none" stroke="midnightblue" d="M88.3033,-51.6908C77.1616,-41.8996 63.5899,-29.973 54.0287,-21.5707"/>
<polygon fill="midnightblue" stroke="midnightblue" points="86.0725,-54.3898 95.8946,-58.3619 90.6933,-49.1316 86.0725,-54.3898"/>
</g>
<!-- Node3 -->
<g id="node5" class="node"><title>Node3</title>
<a xlink:href="test___sparkfun__fuel_gauge_8cpp.html" target="_top" xlink:title="test_Sparkfun_fuelGauge.cpp">
<polygon fill="white" stroke="black" points="102,-0.5 102,-21.5 248,-21.5 248,-0.5 102,-0.5"/>
<text text-anchor="middle" x="175" y="-8.5" font-family="Helvetica,sans-Serif" font-size="10.00">test_Sparkfun_fuelGauge.cpp</text>
</a>
</g>
<!-- Node1&#45;&gt;Node3 -->
<g id="edge4" class="edge"><title>Node1&#45;&gt;Node3</title>
<path fill="none" stroke="midnightblue" d="M127.995,-51.6908C139.306,-41.8996 153.083,-29.973 162.789,-21.5707"/>
<polygon fill="midnightblue" stroke="midnightblue" points="125.559,-49.1706 120.289,-58.3619 130.14,-54.4631 125.559,-49.1706"/>
</g>
</g>
</svg>
