<?xml version="1.0" encoding="UTF-8" standalone="no"?>
<!DOCTYPE svg PUBLIC "-//W3C//DTD SVG 1.1//EN"
 "http://www.w3.org/Graphics/SVG/1.1/DTD/svg11.dtd">
<!-- Generated by graphviz version 2.26.3 (20100126.1600)
 -->
<!-- Title: MAX1704.cpp Pages: 1 -->
<svg width="164pt" height="146pt"
 viewBox="0.00 0.00 164.00 146.00" xmlns="http://www.w3.org/2000/svg" xmlns:xlink="http://www.w3.org/1999/xlink">
<g id="graph1" class="graph" transform="scale(1 1) rotate(0) translate(4 142)">
<title>MAX1704.cpp</title>
<polygon fill="white" stroke="white" points="-4,5 -4,-142 161,-142 161,5 -4,5"/>
<!-- Node1 -->
<g id="node1" class="node"><title>Node1</title>
<polygon fill="#bfbfbf" stroke="black" points="21,-116.5 21,-137.5 99,-137.5 99,-116.5 21,-116.5"/>
<text text-anchor="middle" x="60" y="-124.5" font-family="Helvetica,sans-Serif" font-size="10.00">MAX1704.cpp</text>
</g>
<!-- Node2 -->
<g id="node3" class="node"><title>Node2</title>
<polygon fill="white" stroke="#bfbfbf" points="0,-0.5 0,-21.5 58,-21.5 58,-0.5 0,-0.5"/>
<text text-anchor="middle" x="29" y="-8.5" font-family="Helvetica,sans-Serif" font-size="10.00">Arduino.h</text>
</g>
<!-- Node1&#45;&gt;Node2 -->
<g id="edge2" class="edge"><title>Node1&#45;&gt;Node2</title>
<path fill="none" stroke="midnightblue" d="M45.8213,-116.408C35.6509,-107.861 22.7662,-94.845 17,-80 10.8957,-64.2847 14.9242,-45.3513 19.8999,-31.296"/>
<polygon fill="midnightblue" stroke="midnightblue" points="23.2994,-32.2186 23.7373,-21.6328 16.7936,-29.635 23.2994,-32.2186"/>
</g>
<!-- Node3 -->
<g id="node5" class="node"><title>Node3</title>
<a xlink:href="_m_a_x1704_8h.html" target="_top" xlink:title="MAX1704.h">
<polygon fill="white" stroke="black" points="26,-58.5 26,-79.5 94,-79.5 94,-58.5 26,-58.5"/>
<text text-anchor="middle" x="60" y="-66.5" font-family="Helvetica,sans-Serif" font-size="10.00">MAX1704.h</text>
</a>
</g>
<!-- Node1&#45;&gt;Node3 -->
<g id="edge4" class="edge"><title>Node1&#45;&gt;Node3</title>
<path fill="none" stroke="midnightblue" d="M60,-116.362C60,-108.922 60,-98.7427 60,-89.7276"/>
<polygon fill="midnightblue" stroke="midnightblue" points="63.5001,-89.5706 60,-79.5707 56.5001,-89.5707 63.5001,-89.5706"/>
</g>
<!-- Node4 -->
<g id="node8" class="node"><title>Node4</title>
<polygon fill="white" stroke="#bfbfbf" points="111.5,-58.5 111.5,-79.5 156.5,-79.5 156.5,-58.5 111.5,-58.5"/>
<text text-anchor="middle" x="134" y="-66.5" font-family="Helvetica,sans-Serif" font-size="10.00">Wire.h</text>
</g>
<!-- Node1&#45;&gt;Node4 -->
<g id="edge8" class="edge"><title>Node1&#45;&gt;Node4</title>
<path fill="none" stroke="midnightblue" d="M73.5727,-116.362C84.4212,-107.859 99.8343,-95.7785 112.379,-85.9466"/>
<polygon fill="midnightblue" stroke="midnightblue" points="114.802,-88.4942 120.513,-79.5707 110.484,-82.9848 114.802,-88.4942"/>
</g>
<!-- Node3&#45;&gt;Node2 -->
<g id="edge6" class="edge"><title>Node3&#45;&gt;Node2</title>
<path fill="none" stroke="midnightblue" d="M54.3141,-58.3619C50.1628,-50.5949 44.4159,-39.8426 39.4469,-30.5458"/>
<polygon fill="midnightblue" stroke="midnightblue" points="42.4504,-28.7401 34.6498,-21.5707 36.2769,-32.0398 42.4504,-28.7401"/>
</g>
</g>
</svg>
