<?xml version="1.0" encoding="UTF-8" standalone="no"?>
<!DOCTYPE svg PUBLIC "-//W3C//DTD SVG 1.1//EN"
 "http://www.w3.org/Graphics/SVG/1.1/DTD/svg11.dtd">
<!-- Generated by graphviz version 2.26.3 (20100126.1600)
 -->
<!-- Title: MAX1704.h Pages: 1 -->
<svg width="250pt" height="88pt"
 viewBox="0.00 0.00 250.00 88.00" xmlns="http://www.w3.org/2000/svg" xmlns:xlink="http://www.w3.org/1999/xlink">
<g id="graph1" class="graph" transform="scale(1 1) rotate(0) translate(4 84)">
<title>MAX1704.h</title>
<polygon fill="white" stroke="white" points="-4,5 -4,-84 247,-84 247,5 -4,5"/>
<!-- Node1 -->
<g id="node1" class="node"><title>Node1</title>
<polygon fill="#bfbfbf" stroke="black" points="70,-58.5 70,-79.5 138,-79.5 138,-58.5 70,-58.5"/>
<text text-anchor="middle" x="104" y="-66.5" font-family="Helvetica,sans-Serif" font-size="10.00">MAX1704.h</text>
</g>
<!-- Node2 -->
<g id="node3" class="node"><title>Node2</title>
<a xlink:href="_m_a_x1704_8cpp.html" target="_top" xlink:title="MAX1704.cpp">
<polygon fill="white" stroke="black" points="0,-0.5 0,-21.5 78,-21.5 78,-0.5 0,-0.5"/>
<text text-anchor="middle" x="39" y="-8.5" font-family="Helvetica,sans-Serif" font-size="10.00">MAX1704.cpp</text>
</a>
</g>
<!-- Node1&#45;&gt;Node2 -->
<g id="edge2" class="edge"><title>Node1&#45;&gt;Node2</title>
<path fill="none" stroke="midnightblue" d="M84.6017,-51.6908C73.6289,-41.8996 60.2628,-29.973 50.8464,-21.5707"/>
<polygon fill="midnightblue" stroke="midnightblue" points="82.2863,-54.3155 92.078,-58.3619 86.9468,-49.0925 82.2863,-54.3155"/>
</g>
<!-- Node3 -->
<g id="node5" class="node"><title>Node3</title>
<a xlink:href="test___sparkfun__fuel_gauge_8cpp.html" target="_top" xlink:title="test_Sparkfun_fuelGauge.cpp">
<polygon fill="white" stroke="black" points="96,-0.5 96,-21.5 242,-21.5 242,-0.5 96,-0.5"/>
<text text-anchor="middle" x="169" y="-8.5" font-family="Helvetica,sans-Serif" font-size="10.00">test_Sparkfun_fuelGauge.cpp</text>
</a>
</g>
<!-- Node1&#45;&gt;Node3 -->
<g id="edge4" class="edge"><title>Node1&#45;&gt;Node3</title>
<path fill="none" stroke="midnightblue" d="M123.398,-51.6908C134.371,-41.8996 147.737,-29.973 157.154,-21.5707"/>
<polygon fill="midnightblue" stroke="midnightblue" points="121.053,-49.0925 115.922,-58.3619 125.714,-54.3155 121.053,-49.0925"/>
</g>
</g>
</svg>
