<?xml version="1.0" encoding="UTF-8" standalone="no"?>
<!DOCTYPE svg PUBLIC "-//W3C//DTD SVG 1.1//EN"
 "http://www.w3.org/Graphics/SVG/1.1/DTD/svg11.dtd">
<!-- Generated by graphviz version 2.26.3 (20100126.1600)
 -->
<!-- Title: Mpu6050.h Pages: 1 -->
<svg width="217pt" height="146pt"
 viewBox="0.00 0.00 217.00 146.00" xmlns="http://www.w3.org/2000/svg" xmlns:xlink="http://www.w3.org/1999/xlink">
<g id="graph1" class="graph" transform="scale(1 1) rotate(0) translate(4 142)">
<title>Mpu6050.h</title>
<polygon fill="white" stroke="white" points="-4,5 -4,-142 214,-142 214,5 -4,5"/>
<!-- Node1 -->
<g id="node1" class="node"><title>Node1</title>
<polygon fill="#bfbfbf" stroke="black" points="59.5,-116.5 59.5,-137.5 124.5,-137.5 124.5,-116.5 59.5,-116.5"/>
<text text-anchor="middle" x="92" y="-124.5" font-family="Helvetica,sans-Serif" font-size="10.00">Mpu6050.h</text>
</g>
<!-- Node2 -->
<g id="node3" class="node"><title>Node2</title>
<a xlink:href="_mpu6050_8cpp.html" target="_top" xlink:title="Mpu6050.cpp">
<polygon fill="white" stroke="black" points="-0.5,-58.5 -0.5,-79.5 74.5,-79.5 74.5,-58.5 -0.5,-58.5"/>
<text text-anchor="middle" x="37" y="-66.5" font-family="Helvetica,sans-Serif" font-size="10.00">Mpu6050.cpp</text>
</a>
</g>
<!-- Node1&#45;&gt;Node2 -->
<g id="edge2" class="edge"><title>Node1&#45;&gt;Node2</title>
<path fill="none" stroke="midnightblue" d="M74.7698,-108.83C65.6454,-99.2078 54.7595,-87.7282 47.0239,-79.5707"/>
<polygon fill="midnightblue" stroke="midnightblue" points="72.4915,-111.514 81.9122,-116.362 77.5709,-106.697 72.4915,-111.514"/>
</g>
<!-- Node3 -->
<g id="node5" class="node"><title>Node3</title>
<a xlink:href="test___mpu6050__main_8h.html" target="_top" xlink:title="test_Mpu6050_main.h">
<polygon fill="white" stroke="black" points="91.5,-58.5 91.5,-79.5 204.5,-79.5 204.5,-58.5 91.5,-58.5"/>
<text text-anchor="middle" x="148" y="-66.5" font-family="Helvetica,sans-Serif" font-size="10.00">test_Mpu6050_main.h</text>
</a>
</g>
<!-- Node1&#45;&gt;Node3 -->
<g id="edge4" class="edge"><title>Node1&#45;&gt;Node3</title>
<path fill="none" stroke="midnightblue" d="M109.265,-109.118C118.612,-99.4377 129.839,-87.8098 137.794,-79.5707"/>
<polygon fill="midnightblue" stroke="midnightblue" points="106.699,-106.737 102.271,-116.362 111.735,-111.599 106.699,-106.737"/>
</g>
<!-- Node4 -->
<g id="node7" class="node"><title>Node4</title>
<a xlink:href="test___mpu6050__main_8cpp.html" target="_top" xlink:title="test_Mpu6050_main.cpp">
<polygon fill="white" stroke="black" points="86.5,-0.5 86.5,-21.5 209.5,-21.5 209.5,-0.5 86.5,-0.5"/>
<text text-anchor="middle" x="148" y="-8.5" font-family="Helvetica,sans-Serif" font-size="10.00">test_Mpu6050_main.cpp</text>
</a>
</g>
<!-- Node3&#45;&gt;Node4 -->
<g id="edge6" class="edge"><title>Node3&#45;&gt;Node4</title>
<path fill="none" stroke="midnightblue" d="M148,-48.1906C148,-39.1684 148,-28.9941 148,-21.5707"/>
<polygon fill="midnightblue" stroke="midnightblue" points="144.5,-48.3619 148,-58.3619 151.5,-48.3619 144.5,-48.3619"/>
</g>
</g>
</svg>
