<?xml version="1.0" encoding="UTF-8" standalone="no"?>
<!DOCTYPE svg PUBLIC "-//W3C//DTD SVG 1.1//EN"
 "http://www.w3.org/Graphics/SVG/1.1/DTD/svg11.dtd">
<!-- Generated by graphviz version 2.26.3 (20100126.1600)
 -->
<!-- Title: Mpu6050.cpp Pages: 1 -->
<svg width="134pt" height="146pt"
 viewBox="0.00 0.00 134.00 146.00" xmlns="http://www.w3.org/2000/svg" xmlns:xlink="http://www.w3.org/1999/xlink">
<g id="graph1" class="graph" transform="scale(1 1) rotate(0) translate(4 142)">
<title>Mpu6050.cpp</title>
<polygon fill="white" stroke="white" points="-4,5 -4,-142 131,-142 131,5 -4,5"/>
<!-- Node1 -->
<g id="node1" class="node"><title>Node1</title>
<polygon fill="#bfbfbf" stroke="black" points="30.5,-116.5 30.5,-137.5 105.5,-137.5 105.5,-116.5 30.5,-116.5"/>
<text text-anchor="middle" x="68" y="-124.5" font-family="Helvetica,sans-Serif" font-size="10.00">Mpu6050.cpp</text>
</g>
<!-- Node2 -->
<g id="node3" class="node"><title>Node2</title>
<a xlink:href="_mpu6050_8h.html" target="_top" xlink:title="Mpu6050.h">
<polygon fill="white" stroke="black" points="-0.5,-58.5 -0.5,-79.5 64.5,-79.5 64.5,-58.5 -0.5,-58.5"/>
<text text-anchor="middle" x="32" y="-66.5" font-family="Helvetica,sans-Serif" font-size="10.00">Mpu6050.h</text>
</a>
</g>
<!-- Node1&#45;&gt;Node2 -->
<g id="edge2" class="edge"><title>Node1&#45;&gt;Node2</title>
<path fill="none" stroke="midnightblue" d="M61.397,-116.362C56.5254,-108.513 49.7616,-97.6159 43.95,-88.2527"/>
<polygon fill="midnightblue" stroke="midnightblue" points="46.8085,-86.2213 38.5611,-79.5707 40.861,-89.9129 46.8085,-86.2213"/>
</g>
<!-- Node4 -->
<g id="node7" class="node"><title>Node4</title>
<polygon fill="white" stroke="#bfbfbf" points="81.5,-58.5 81.5,-79.5 126.5,-79.5 126.5,-58.5 81.5,-58.5"/>
<text text-anchor="middle" x="104" y="-66.5" font-family="Helvetica,sans-Serif" font-size="10.00">Wire.h</text>
</g>
<!-- Node1&#45;&gt;Node4 -->
<g id="edge6" class="edge"><title>Node1&#45;&gt;Node4</title>
<path fill="none" stroke="midnightblue" d="M74.603,-116.362C79.4746,-108.513 86.2384,-97.6159 92.05,-88.2527"/>
<polygon fill="midnightblue" stroke="midnightblue" points="95.139,-89.9129 97.4389,-79.5707 89.1915,-86.2213 95.139,-89.9129"/>
</g>
<!-- Node3 -->
<g id="node5" class="node"><title>Node3</title>
<polygon fill="white" stroke="#bfbfbf" points="3,-0.5 3,-21.5 61,-21.5 61,-0.5 3,-0.5"/>
<text text-anchor="middle" x="32" y="-8.5" font-family="Helvetica,sans-Serif" font-size="10.00">Arduino.h</text>
</g>
<!-- Node2&#45;&gt;Node3 -->
<g id="edge4" class="edge"><title>Node2&#45;&gt;Node3</title>
<path fill="none" stroke="midnightblue" d="M32,-58.3619C32,-50.9219 32,-40.7427 32,-31.7276"/>
<polygon fill="midnightblue" stroke="midnightblue" points="35.5001,-31.5706 32,-21.5707 28.5001,-31.5707 35.5001,-31.5706"/>
</g>
</g>
</svg>
