<?xml version="1.0" encoding="UTF-8" standalone="no"?>
<!DOCTYPE svg PUBLIC "-//W3C//DTD SVG 1.1//EN"
 "http://www.w3.org/Graphics/SVG/1.1/DTD/svg11.dtd">
<!-- Generated by graphviz version 2.26.3 (20100126.1600)
 -->
<!-- Title: PCA9685.cpp Pages: 1 -->
<svg width="136pt" height="146pt"
 viewBox="0.00 0.00 136.00 146.00" xmlns="http://www.w3.org/2000/svg" xmlns:xlink="http://www.w3.org/1999/xlink">
<g id="graph1" class="graph" transform="scale(1 1) rotate(0) translate(4 142)">
<title>PCA9685.cpp</title>
<polygon fill="white" stroke="white" points="-4,5 -4,-142 133,-142 133,5 -4,5"/>
<!-- Node1 -->
<g id="node1" class="node"><title>Node1</title>
<polygon fill="#bfbfbf" stroke="black" points="30.5,-116.5 30.5,-137.5 107.5,-137.5 107.5,-116.5 30.5,-116.5"/>
<text text-anchor="middle" x="69" y="-124.5" font-family="Helvetica,sans-Serif" font-size="10.00">PCA9685.cpp</text>
</g>
<!-- Node2 -->
<g id="node3" class="node"><title>Node2</title>
<a xlink:href="_p_c_a9685_8h.html" target="_top" xlink:title="Header file for PCA9685 class.">
<polygon fill="white" stroke="black" points="-0.5,-58.5 -0.5,-79.5 66.5,-79.5 66.5,-58.5 -0.5,-58.5"/>
<text text-anchor="middle" x="33" y="-66.5" font-family="Helvetica,sans-Serif" font-size="10.00">PCA9685.h</text>
</a>
</g>
<!-- Node1&#45;&gt;Node2 -->
<g id="edge2" class="edge"><title>Node1&#45;&gt;Node2</title>
<path fill="none" stroke="midnightblue" d="M62.397,-116.362C57.5254,-108.513 50.7616,-97.6159 44.95,-88.2527"/>
<polygon fill="midnightblue" stroke="midnightblue" points="47.8085,-86.2213 39.5611,-79.5707 41.861,-89.9129 47.8085,-86.2213"/>
</g>
<!-- Node4 -->
<g id="node7" class="node"><title>Node4</title>
<polygon fill="white" stroke="#bfbfbf" points="83.5,-58.5 83.5,-79.5 128.5,-79.5 128.5,-58.5 83.5,-58.5"/>
<text text-anchor="middle" x="106" y="-66.5" font-family="Helvetica,sans-Serif" font-size="10.00">Wire.h</text>
</g>
<!-- Node1&#45;&gt;Node4 -->
<g id="edge6" class="edge"><title>Node1&#45;&gt;Node4</title>
<path fill="none" stroke="midnightblue" d="M75.7864,-116.362C80.7934,-108.513 87.745,-97.6159 93.7181,-88.2527"/>
<polygon fill="midnightblue" stroke="midnightblue" points="96.8292,-89.8837 99.2567,-79.5707 90.9277,-86.1189 96.8292,-89.8837"/>
</g>
<!-- Node3 -->
<g id="node5" class="node"><title>Node3</title>
<polygon fill="white" stroke="#bfbfbf" points="4,-0.5 4,-21.5 62,-21.5 62,-0.5 4,-0.5"/>
<text text-anchor="middle" x="33" y="-8.5" font-family="Helvetica,sans-Serif" font-size="10.00">Arduino.h</text>
</g>
<!-- Node2&#45;&gt;Node3 -->
<g id="edge4" class="edge"><title>Node2&#45;&gt;Node3</title>
<path fill="none" stroke="midnightblue" d="M33,-58.3619C33,-50.9219 33,-40.7427 33,-31.7276"/>
<polygon fill="midnightblue" stroke="midnightblue" points="36.5001,-31.5706 33,-21.5707 29.5001,-31.5707 36.5001,-31.5706"/>
</g>
</g>
</svg>
