<?xml version="1.0" encoding="UTF-8" standalone="no"?>
<!DOCTYPE svg PUBLIC "-//W3C//DTD SVG 1.1//EN"
 "http://www.w3.org/Graphics/SVG/1.1/DTD/svg11.dtd">
<!-- Generated by graphviz version 2.26.3 (20100126.1600)
 -->
<!-- Title: PCA9685.h Pages: 1 -->
<svg width="200pt" height="88pt"
 viewBox="0.00 0.00 200.00 88.00" xmlns="http://www.w3.org/2000/svg" xmlns:xlink="http://www.w3.org/1999/xlink">
<g id="graph1" class="graph" transform="scale(1 1) rotate(0) translate(4 84)">
<title>PCA9685.h</title>
<polygon fill="white" stroke="white" points="-4,5 -4,-84 197,-84 197,5 -4,5"/>
<!-- Node1 -->
<g id="node1" class="node"><title>Node1</title>
<polygon fill="#bfbfbf" stroke="black" points="56.5,-58.5 56.5,-79.5 123.5,-79.5 123.5,-58.5 56.5,-58.5"/>
<text text-anchor="middle" x="90" y="-66.5" font-family="Helvetica,sans-Serif" font-size="10.00">PCA9685.h</text>
</g>
<!-- Node2 -->
<g id="node3" class="node"><title>Node2</title>
<a xlink:href="_p_c_a9685_8cpp.html" target="_top" xlink:title="Implementation file for PCA9685 class.">
<polygon fill="white" stroke="black" points="-0.5,-0.5 -0.5,-21.5 76.5,-21.5 76.5,-0.5 -0.5,-0.5"/>
<text text-anchor="middle" x="38" y="-8.5" font-family="Helvetica,sans-Serif" font-size="10.00">PCA9685.cpp</text>
</a>
</g>
<!-- Node1&#45;&gt;Node2 -->
<g id="edge2" class="edge"><title>Node1&#45;&gt;Node2</title>
<path fill="none" stroke="midnightblue" d="M73.7096,-50.8299C65.0829,-41.2078 54.7908,-29.7282 47.4771,-21.5707"/>
<polygon fill="midnightblue" stroke="midnightblue" points="71.1809,-53.2526 80.4624,-58.3619 76.3929,-48.5798 71.1809,-53.2526"/>
</g>
<!-- Node3 -->
<g id="node5" class="node"><title>Node3</title>
<a xlink:href="test___p_c_a9685_8cpp.html" target="_top" xlink:title="test_PCA9685.cpp">
<polygon fill="white" stroke="black" points="93.5,-0.5 93.5,-21.5 192.5,-21.5 192.5,-0.5 93.5,-0.5"/>
<text text-anchor="middle" x="143" y="-8.5" font-family="Helvetica,sans-Serif" font-size="10.00">test_PCA9685.cpp</text>
</a>
</g>
<!-- Node1&#45;&gt;Node3 -->
<g id="edge4" class="edge"><title>Node1&#45;&gt;Node3</title>
<path fill="none" stroke="midnightblue" d="M106.604,-50.8299C115.396,-41.2078 125.886,-29.7282 133.341,-21.5707"/>
<polygon fill="midnightblue" stroke="midnightblue" points="103.883,-48.6188 99.721,-58.3619 109.051,-53.3408 103.883,-48.6188"/>
</g>
</g>
</svg>
